<?xml version="1.0" encoding="UTF-8" standalone="no"?><!-- Generator: Gravit.io --><svg xmlns="http://www.w3.org/2000/svg" xmlns:xlink="http://www.w3.org/1999/xlink" style="isolation:isolate" viewBox="0 0 456 456" width="456pt" height="456pt"><defs><clipPath id="_clipPath_oj9ZiHQyebPClCst50HNebcaB3JOpB70"><rect width="456" height="456"/></clipPath></defs><g clip-path="url(#_clipPath_oj9ZiHQyebPClCst50HNebcaB3JOpB70)"><rect width="456" height="456" style="fill:rgb(61,0,108)" fill-opacity="0"/><g><path d=" M 71.91 131.421 L 71.925 359.144 Q 71.807 360.734 73.171 360.491 Q 74.536 360.247 95.362 355.936 L 95.629 124.044 L 71.896 129.63 L 71.91 131.421 Z " fill="rgb(255,128,0)"/><path d=" M 55.557 186.189 Q 55.076 176.832 67.905 171.879 L 67.705 153.702 Q 39.937 164.338 36.666 185.802 C 35.331 197.598 56.291 200.499 55.557 186.189 Z " fill="rgb(255,128,0)"/><path d=" M 220.719 89.53 Q 165.866 104.907 119.036 119.217 Q 117.835 140.359 97.543 176.456 Q 96.326 182.028 97.81 187.8 Q 100.128 200.619 106.532 211.02 C 111.753 219.499 114.957 232.907 115.165 244.91 Q 116.5 266.138 97.394 295.703 Q 96.208 301.777 97.409 307.692 C 101.785 342.801 139.228 371.347 185.52 370.346 Q 255.351 369.114 296.083 343.717 C 303.995 331.953 288.172 322.174 280.578 333.939 Q 143.398 385.429 118.235 296.863 Q 159.695 246.39 119.837 176.714 Q 136.278 127.214 199.404 112.513 Q 253.521 96.504 278.036 106.196 C 295.134 120.492 304.944 99.101 289.918 92.145 C 276.128 84.44 253.062 83.568 220.719 89.53 Z " fill="rgb(255,128,0)"/><path d=" M 148.963 150.049 L 149.141 227.055 L 168.432 223.961 L 168.476 164.681 Q 178.326 168.964 183.161 179.936 Q 183.428 213.235 183.451 220.824 L 203.053 217.322 L 203.187 139.07 L 148.963 150.049 Z " fill="rgb(255,128,0)"/><path d=" M 148.896 257.2 L 148.956 335.88 L 168.247 332.786 L 168.358 274.045 Q 177.97 279.202 183.191 290.317 Q 183.458 323.616 183.266 329.649 L 202.868 326.147 L 202.653 247.345 L 148.896 257.2 Z " fill="rgb(255,128,0)"/><path d=" M 240.863 131.34 C 217.921 132.868 212.383 149.063 212.383 151.814 C 212.383 154.564 211.75 193.831 211.592 197.039 C 211.434 200.248 214.44 215.068 234.218 214.457 C 254.471 214.152 260.8 196.123 260.8 191.844 C 260.8 187.566 260.958 150.133 260.8 147.535 C 260.641 144.938 257.793 132.257 240.863 131.34 Z  M 236.354 149.675 Q 239.993 149.445 241.022 152.425 L 241.022 191.386 Q 240.468 195.664 236.117 195.741 Q 231.766 195.817 231.449 191.615 L 231.607 153.189 Q 232.715 149.904 236.354 149.675 Z " fill-rule="evenodd" fill="rgb(255,128,0)"/><path d=" M 240.824 240.241 C 217.882 241.768 212.344 257.964 212.344 260.714 C 212.344 263.465 211.711 302.732 211.553 305.94 C 211.394 309.149 214.401 323.969 234.179 323.358 C 254.431 323.053 260.76 305.023 260.76 300.745 C 260.76 296.467 260.918 259.034 260.76 256.436 C 260.602 253.839 257.754 241.157 240.824 240.241 Z  M 236.315 258.575 Q 239.954 258.346 240.982 261.326 L 240.982 300.287 Q 240.428 304.565 236.077 304.641 Q 231.726 304.718 231.41 300.516 L 231.568 262.089 Q 232.675 258.805 236.315 258.575 Z " fill-rule="evenodd" fill="rgb(255,128,0)"/><path d=" M 300.865 152.864 L 320.489 149.254 Q 320.489 140.875 320.489 138.554 C 320.489 136.234 316.618 123.213 298.595 122.053 C 273.898 124.374 269.092 144.098 269.092 146.676 C 269.092 149.254 268.825 184.062 268.825 186.382 C 268.825 188.703 273.497 205.075 291.253 205.075 Q 322.358 203.528 320.356 168.85 L 300.865 172.33 Q 300.998 178.647 300.865 180.452 C 300.731 182.257 298.862 185.995 294.724 185.995 C 290.585 186.769 289.117 184.191 289.117 182.257 C 289.117 180.323 288.983 147.192 288.983 145.387 C 288.983 143.582 290.452 140.488 295.124 140.359 Q 299.129 139.972 300.731 144.098 L 300.865 152.864 Z " fill="rgb(255,128,0)"/><path d=" M 301.221 261.841 L 320.845 258.232 Q 320.845 249.852 320.845 247.531 C 320.845 245.211 316.677 231.431 298.655 230.271 C 273.957 232.592 269.106 253.132 269.106 255.711 C 269.106 258.289 269.106 293.154 269.106 295.474 C 269.106 297.794 273.66 314.382 291.416 314.382 Q 322.522 312.835 320.712 277.827 L 301.265 281.379 Q 301.043 287.71 300.909 289.515 C 300.776 291.32 299.218 294.973 295.08 294.973 C 290.941 295.746 289.473 293.168 289.473 291.234 C 289.473 289.3 289.339 256.169 289.339 254.364 C 289.339 252.559 290.808 249.465 295.48 249.336 Q 299.485 248.95 301.087 253.075 L 301.221 261.841 Z " fill="rgb(255,128,0)"/><path d=" M 329.943 197.192 L 352.253 192.761 L 352.253 159.911 Q 360.639 208.804 403.359 207.429 C 413.485 206.359 415.068 203.609 417.441 200.401 C 421.109 193.459 417.599 190.317 416.492 188.789 C 412.22 183.288 406.84 187.108 403.834 188.33 Q 384.53 191.997 370.607 141.424 L 391.492 106.13 L 366.651 111.019 L 352.728 136.84 L 353.202 98.643 L 329.627 103.838 L 329.943 197.192 Z " fill="rgb(255,128,0)"/><path d=" M 330.154 329.1 L 352.306 325.026 L 352.517 262.28 Q 369.394 333.786 410.11 327.471 C 419.814 324.822 419.392 318.914 419.392 316.266 C 419.181 310.562 412.272 307.914 409.266 309.136 Q 392.6 314.433 375.09 256.373 L 394.92 219.499 L 371.503 223.981 L 352.728 257.162 L 352.728 206.665 L 330.154 211.147 L 330.154 329.1 Z " fill="rgb(255,128,0)"/></g><rect x="0" y="0" width="456" height="456" transform="matrix(1,0,0,1,0,0)" fill="none"/></g></svg>