<?xml version="1.0" encoding="UTF-8" standalone="no"?><!-- Generator: Gravit.io --><svg xmlns="http://www.w3.org/2000/svg" xmlns:xlink="http://www.w3.org/1999/xlink" style="isolation:isolate" viewBox="0 0 456 456" width="456pt" height="456pt"><defs><clipPath id="_clipPath_GcqspiH8DmPKANHdvmdPQJ67z3WIcQJv"><rect width="456" height="456"/></clipPath></defs><g clip-path="url(#_clipPath_GcqspiH8DmPKANHdvmdPQJ67z3WIcQJv)"><rect width="456" height="456" style="fill:rgb(61,0,108)" fill-opacity="0"/><g><path d=" M 130.931 167.94 L 130.941 309.556 Q 130.867 310.545 131.715 310.393 Q 132.564 310.242 145.515 307.56 L 145.681 163.352 L 130.922 166.826 L 130.931 167.94 Z " fill="rgb(255,128,0)"/><path d=" M 120.761 201.999 Q 120.463 196.18 128.441 193.1 L 128.316 181.796 Q 111.048 188.41 109.014 201.758 C 108.183 209.094 121.218 210.897 120.761 201.999 Z " fill="rgb(255,128,0)"/><path d=" M 223.472 141.889 Q 189.36 151.451 160.238 160.35 Q 159.491 173.498 146.871 195.946 Q 146.115 199.411 147.037 203.001 Q 148.479 210.973 152.462 217.44 C 155.709 222.714 157.701 231.051 157.83 238.516 Q 158.66 251.717 146.779 270.103 Q 146.041 273.88 146.788 277.559 C 149.51 299.392 172.794 317.144 201.583 316.522 Q 245.009 315.756 270.34 299.962 C 275.259 292.646 265.42 286.565 260.697 293.881 Q 175.388 325.902 159.74 270.825 Q 185.523 239.437 160.736 196.106 Q 170.96 165.324 210.217 156.181 Q 243.871 146.225 259.116 152.253 C 269.749 161.143 275.85 147.841 266.505 143.514 C 257.93 138.723 243.586 138.181 223.472 141.889 Z " fill="rgb(255,128,0)"/><path d=" M 178.849 179.524 L 178.959 227.413 L 190.956 225.488 L 190.983 188.624 Q 197.109 191.287 200.116 198.11 Q 200.282 218.818 200.296 223.538 L 212.486 221.36 L 212.569 172.696 L 178.849 179.524 Z " fill="rgb(255,128,0)"/><path d=" M 178.807 246.159 L 178.844 295.088 L 190.841 293.164 L 190.91 256.635 Q 196.887 259.841 200.134 266.754 Q 200.3 287.461 200.181 291.213 L 212.371 289.035 L 212.237 240.03 L 178.807 246.159 Z " fill="rgb(255,128,0)"/><path d=" M 236 167.889 C 221.732 168.839 218.288 178.911 218.288 180.621 C 218.288 182.332 217.895 206.751 217.796 208.746 C 217.698 210.742 219.567 219.958 231.867 219.578 C 244.462 219.388 248.397 208.176 248.397 205.516 C 248.397 202.855 248.496 179.576 248.397 177.961 C 248.299 176.346 246.528 168.459 236 167.889 Z  M 233.195 179.291 Q 235.458 179.149 236.098 181.001 L 236.098 205.231 Q 235.754 207.891 233.048 207.939 Q 230.342 207.986 230.145 205.373 L 230.243 181.476 Q 230.932 179.434 233.195 179.291 Z " fill-rule="evenodd" fill="rgb(255,128,0)"/><path d=" M 235.975 235.612 C 221.708 236.562 218.264 246.634 218.264 248.344 C 218.264 250.055 217.87 274.474 217.772 276.469 C 217.673 278.465 219.543 287.681 231.842 287.301 C 244.437 287.111 248.373 275.899 248.373 273.239 C 248.373 270.578 248.471 247.299 248.373 245.684 C 248.274 244.069 246.503 236.182 235.975 235.612 Z  M 233.171 247.014 Q 235.434 246.872 236.073 248.724 L 236.073 272.954 Q 235.729 275.614 233.023 275.662 Q 230.317 275.709 230.12 273.096 L 230.219 249.199 Q 230.908 247.157 233.171 247.014 Z " fill-rule="evenodd" fill="rgb(255,128,0)"/><path d=" M 273.313 181.275 L 285.517 179.03 Q 285.517 173.819 285.517 172.376 C 285.517 170.933 283.11 162.835 271.902 162.114 C 256.543 163.557 253.554 175.823 253.554 177.426 C 253.554 179.03 253.388 200.676 253.388 202.119 C 253.388 203.562 256.294 213.743 267.335 213.743 Q 286.679 212.781 285.434 191.216 L 273.313 193.38 Q 273.396 197.309 273.313 198.431 C 273.23 199.553 272.068 201.878 269.494 201.878 C 266.92 202.359 266.007 200.756 266.007 199.553 C 266.007 198.351 265.924 177.747 265.924 176.625 C 265.924 175.502 266.837 173.578 269.743 173.498 Q 272.234 173.258 273.23 175.823 L 273.313 181.275 Z " fill="rgb(255,128,0)"/><path d=" M 273.534 249.045 L 285.739 246.8 Q 285.739 241.589 285.739 240.146 C 285.739 238.703 283.146 230.134 271.939 229.412 C 256.58 230.855 253.563 243.629 253.563 245.233 C 253.563 246.836 253.563 268.518 253.563 269.961 C 253.563 271.404 256.395 281.719 267.437 281.719 Q 286.781 280.757 285.656 258.986 L 273.562 261.195 Q 273.424 265.133 273.341 266.255 C 273.258 267.377 272.289 269.649 269.715 269.649 C 267.142 270.13 266.229 268.526 266.229 267.324 C 266.229 266.121 266.146 245.518 266.146 244.395 C 266.146 243.273 267.059 241.349 269.964 241.269 Q 272.455 241.028 273.451 243.594 L 273.534 249.045 Z " fill="rgb(255,128,0)"/><path d=" M 291.396 208.841 L 305.27 206.086 L 305.27 185.657 Q 310.485 216.062 337.052 215.207 C 343.349 214.542 344.333 212.832 345.809 210.837 C 348.09 206.52 345.908 204.565 345.219 203.615 C 342.562 200.195 339.217 202.57 337.347 203.33 Q 325.343 205.611 316.684 174.16 L 329.672 152.211 L 314.224 155.252 L 305.565 171.31 L 305.86 147.556 L 291.2 150.786 L 291.396 208.841 Z " fill="rgb(255,128,0)"/><path d=" M 291.527 290.872 L 305.303 288.338 L 305.434 249.318 Q 315.93 293.786 341.25 289.859 C 347.285 288.212 347.023 284.538 347.023 282.891 C 346.891 279.343 342.595 277.697 340.725 278.457 Q 330.361 281.751 319.472 245.644 L 331.804 222.714 L 317.242 225.501 L 305.565 246.135 L 305.565 214.732 L 291.527 217.519 L 291.527 290.872 Z " fill="rgb(255,128,0)"/></g><rect x="0" y="0" width="456" height="456" transform="matrix(1,0,0,1,0,0)" fill="none"/></g></svg>